<svg width="770" height="862" viewBox="0 0 770 862" fill="none" xmlns="http://www.w3.org/2000/svg">
<path fill-rule="evenodd" clip-rule="evenodd" d="M569.102 -122.039C675.5 -136.985 771.428 -63.3762 855.482 -7.57243C931.645 42.9933 991.322 108.124 1028.22 182.773C1062.34 251.802 1057.07 326.704 1057.54 401.238C1058.01 476.136 1074.53 555.278 1030.98 621.017C987.158 687.173 897.481 719.377 820.149 759.612C739.932 801.347 663.662 855.084 569.102 861.325C472.045 867.731 382.52 827.26 293.713 794.358C196.612 758.382 76.2268 737.047 25.4768 659.915C-25.2835 582.767 11.5704 486.838 35.0553 401.238C55.0835 328.238 97.2758 262.628 151.026 202.302C200.588 146.677 273.065 112.983 334.037 65.6809C414.858 2.97993 459.685 -106.667 569.102 -122.039Z" fill="url(#paint0_linear_50_365)"/>
<defs>
<linearGradient id="paint0_linear_50_365" x1="530.5" y1="-124" x2="530.5" y2="862" gradientUnits="userSpaceOnUse">
<stop stop-color="#C5DCFF"/>
<stop offset="0.96875" stop-color="#C5DCFF" stop-opacity="0.5"/>
<stop offset="1" stop-color="#C4C4C4" stop-opacity="0"/>
</linearGradient>
</defs>
</svg>
